<svg xmlns="http://www.w3.org/2000/svg" xmlns:xlink="http://www.w3.org/1999/xlink" viewBox="0 0 307.23 420.94"><defs><style>.cls-1{fill:#265aa6;}.cls-2{fill:url(#Безымянный_градиент_9);}.cls-3{fill:url(#Безымянный_градиент_9-2);}</style><linearGradient id="Безымянный_градиент_9" x1="192.38" y1="301.82" x2="192.38" y2="4.75" gradientUnits="userSpaceOnUse"><stop offset="0.25" stop-color="#46bbed"/><stop offset="0.34" stop-color="#43b2e6"/><stop offset="0.48" stop-color="#3b9ad5"/><stop offset="0.66" stop-color="#2e72b8"/><stop offset="0.75" stop-color="#265aa6"/></linearGradient><linearGradient id="Безымянный_градиент_9-2" x1="115.07" y1="301.82" x2="115.07" y2="4.75" xlink:href="#Безымянный_градиент_9"/></defs><g id="Слой_2" data-name="Слой 2"><g id="Слой_1-2" data-name="Слой 1"><path class="cls-1" d="M0,419.05v-52H14.7v6.72q6.09-7.87,20-7.66v15.54a15.47,15.47,0,0,0-7.56-1.79,11.32,11.32,0,0,0-8.71,4.1q-3.69,4.09-3.68,11.23v23.84Z"/><path class="cls-1" d="M64.16,419.68q-10.2,0-16.33-6.72t-6.14-18.9v-27h14.7v25.41q0,7,3.09,10.82a10.13,10.13,0,0,0,8.25,3.78,10.61,10.61,0,0,0,8.71-3.89q3.15-3.88,3.15-11v-25.1h14.7v52H79.8v-6.3h-.21Q73.92,419.68,64.16,419.68Z"/><path class="cls-1" d="M125,420.94A28.38,28.38,0,0,1,110.09,417a20.2,20.2,0,0,1-9-10.66l12.7-4q3,6.82,11.34,6.83a11.68,11.68,0,0,0,6.62-1.63,5.21,5.21,0,0,0,2.41-4.57,3.53,3.53,0,0,0-2.2-3.31,12.6,12.6,0,0,0-5.2-1.2q-3-.11-7.35-.69A29.41,29.41,0,0,1,112,396q-8.92-4-8.93-13.23,0-7.25,6.2-12.18a23.51,23.51,0,0,1,15.12-4.94q8.4,0,14,3.89a18.09,18.09,0,0,1,7.41,10.39l-12.5,3.47a8.65,8.65,0,0,0-3-4.89,9,9,0,0,0-5.78-1.83,9.31,9.31,0,0,0-5.72,1.68,5,5,0,0,0-2.26,4.09q0,3,3.57,4.15a50.81,50.81,0,0,0,9.66,1.68,33.21,33.21,0,0,1,9.35,1.94q9.35,3.88,9.34,13a15.23,15.23,0,0,1-6.61,12.86Q135.24,420.94,125,420.94Z"/><path class="cls-1" d="M182.49,419.26q-8.93,0-14.49-5.1t-5.56-13.49V379.88h-11V367.07h11V352h14.49v15.12h14.49v12.81H176.93v17.54q0,8.4,8.92,8.4a18.18,18.18,0,0,0,5.36-.84l1.57,12.6A34.34,34.34,0,0,1,182.49,419.26Z"/><path class="cls-1" d="M222.92,419.68q-10.18,0-16.33-6.72t-6.14-18.9v-27h14.7v25.41q0,7,3.1,10.82a10.11,10.11,0,0,0,8.24,3.78,10.6,10.6,0,0,0,8.71-3.89q3.15-3.88,3.15-11v-25.1h14.7v52H238.56v-6.3h-.21Q232.68,419.68,222.92,419.68Z"/><path class="cls-1" d="M283.71,420.94A28.32,28.32,0,0,1,268.86,417a20.18,20.18,0,0,1-9-10.66l12.7-4q3,6.82,11.34,6.83a11.68,11.68,0,0,0,6.62-1.63A5.21,5.21,0,0,0,293,403a3.54,3.54,0,0,0-2.21-3.31,12.56,12.56,0,0,0-5.2-1.2q-3-.11-7.35-.69a29.52,29.52,0,0,1-7.4-1.83q-8.93-4-8.93-13.23,0-7.25,6.2-12.18a23.51,23.51,0,0,1,15.12-4.94q8.4,0,14,3.89a18.12,18.12,0,0,1,7.4,10.39l-12.5,3.47a8.65,8.65,0,0,0-3-4.89,9,9,0,0,0-5.78-1.83,9.33,9.33,0,0,0-5.72,1.68,5,5,0,0,0-2.26,4.09q0,3,3.57,4.15a50.81,50.81,0,0,0,9.66,1.68,33.21,33.21,0,0,1,9.35,1.94q9.35,3.88,9.34,13a15.23,15.23,0,0,1-6.61,12.86Q294,420.94,283.71,420.94Z"/><path class="cls-2" d="M192.24,301.82q-41,0-63.84-23.07t-22.8-66.13V38.36c7.78-7.25,11-10.24,18.12-16.93h0c8.89-8.23,12.93-12,18.12-16.68V211.21q0,58.33,50.12,58.33,50.4,0,50.4-58.33v-92.3a18.13,18.13,0,0,1,18.12-18.13h.57a18.13,18.13,0,0,1,18.12,18.13v93.71q0,43-22.93,66.13T192.24,301.82Z"/><path class="cls-3" d="M51.21,278.75q-22.93-23.08-22.93-66.13V118.91a18.13,18.13,0,0,1,18.13-18.13H47a18.13,18.13,0,0,1,18.12,18.13v92.3q0,58.33,50.4,58.33,50.12,0,50.12-58.33V4.75c5.2,4.68,9.24,8.45,18.12,16.68h0c7.13,6.69,10.35,9.68,18.12,16.93V212.62q0,43-22.8,66.13t-63.84,23.07Q74.16,301.82,51.21,278.75Z"/><path class="cls-1" d="M88.08,96.57A17.7,17.7,0,0,1,76,65.92L141.67,4.75a17.7,17.7,0,0,1,24.12,25.9L100.14,91.82A17.62,17.62,0,0,1,88.08,96.57Z"/><path class="cls-1" d="M219.37,96.57a17.62,17.62,0,0,1-12.06-4.75L141.67,30.65a17.7,17.7,0,1,1,24.12-25.9l65.64,61.17a17.7,17.7,0,0,1-12.06,30.65Z"/></g></g></svg>