<svg xmlns="http://www.w3.org/2000/svg" xmlns:xlink="http://www.w3.org/1999/xlink" viewBox="0 0 392 392"><defs><style>.cls-1{fill:url(#Безымянный_градиент_9);}.cls-2{fill:url(#Безымянный_градиент_9-2);}.cls-3{fill:#FFFFFF;}.cls-4{fill:#FFFFFF;}</style><linearGradient id="Безымянный_градиент_9" x1="213.3" y1="392.31" x2="213.3" y2="6.18" gradientUnits="userSpaceOnUse"><stop offset="0.25" stop-color="#FFFFFF"/><stop offset="0.34" stop-color="#FFFFFF"/><stop offset="0.48" stop-color="#FFFFFF"/><stop offset="0.66" stop-color="#FFFFFF"/><stop offset="0.75" stop-color="#FFFFFF"/></linearGradient><linearGradient id="Безымянный_градиент_9-2" x1="112.8" y1="392.31" x2="112.8" y2="6.18" xlink:href="#Безымянный_градиент_9"/></defs><g id="Слой_2" data-name="Слой 2"><g id="Слой_1-2" data-name="Слой 1"><path class="cls-1" d="M213.11,392.31q-53.36,0-83-30t-29.64-85.94V49.86c10.11-9.42,14.29-13.31,23.56-22h0c11.55-10.71,16.8-15.6,23.56-21.68V274.52q0,75.84,65.14,75.82,65.51,0,65.5-75.82v-120A23.55,23.55,0,0,1,301.81,131h.73a23.55,23.55,0,0,1,23.56,23.55V276.37q0,56-29.8,85.94T213.11,392.31Z"/><path class="cls-2" d="M29.8,362.31Q0,332.33,0,276.37V154.55A23.55,23.55,0,0,1,23.56,131h.73a23.55,23.55,0,0,1,23.56,23.55v120q0,75.84,65.5,75.82,65.15,0,65.14-75.82V6.18c6.76,6.08,12,11,23.56,21.68h0c9.27,8.69,13.45,12.58,23.56,22V276.37q0,56-29.64,85.94t-83,30Q59.62,392.31,29.8,362.31Z"/><path class="cls-3" d="M77.73,125.52A23,23,0,0,1,62.05,85.68l85.33-79.5a23,23,0,0,1,31.36,33.66L93.41,119.35A23,23,0,0,1,77.73,125.52Z"/><path class="cls-3" d="M248.37,125.52a23,23,0,0,1-15.68-6.17L147.38,39.84A23,23,0,1,1,178.74,6.18l85.31,79.5a23,23,0,0,1-15.68,39.84Z"/></g></g></svg>